<?xml version="1.0" encoding="utf-8"?>
<!-- Generator: Adobe Illustrator 22.1.0, SVG Export Plug-In . SVG Version: 6.00 Build 0)  -->
<svg version="1.1" id="Layer_1" xmlns="http://www.w3.org/2000/svg" xmlns:xlink="http://www.w3.org/1999/xlink" x="0px" y="0px"
	 viewBox="0 0 1757.5 412.8" style="enable-background:new 0 0 1757.5 412.8;" xml:space="preserve">
<style type="text/css">
	.st0{fill:#2D92CE;}
	.st1{fill:#2F92D0;}
</style>
<path d="M493.6,336.7v-46.5h82.6c5.1-0.9,8.1-3.3,9.1-7.2c0.2-0.5,0.3-1,0.3-1.7v-3.8c0-4.8-2.5-7.7-7.7-8.9h-40.1
	c-7,0-13.6-1.7-19.9-5.2c-15.6-8.8-23.4-20-23.4-33.7v-34c0-3.2,0.5-6.8,1.4-10.8c4.8-20.4,19.2-30.5,43.2-30.5h92.6l1,46.5h-84
	c-0.9,0.2-2.1,0.7-3.5,1.4c-3.5,3.4-5.2,5.8-5.2,7.2v4.1c0,4.6,3.7,7.4,11,8.5h41c10.3,0,19.6,4.2,27.7,12.5
	c8.2,8.3,12.1,17.7,11.9,28.1v33.3c-0.2,7.4-2.4,14.5-6.4,21.3c-4.1,6.8-9.2,11.9-15.5,15.1c-5.3,2.8-12.4,4.2-21.2,4.2H493.6z"/>
<path d="M648.4,197.1c0-3,0.3-6.1,1-9.4c4.9-22.2,19.5-33.3,44.1-33.3h62.8c25.5,0,39.8,12.1,43,36.3c0.2,1.6,0.3,4.1,0.3,7.6v36.3
	l-104.4,40.1l-0.1,3c0,8.3,3,12.4,9,12.4h95.1v46.5H698.1c-12,0-21.2-1.7-27.4-5.2c-14.8-8.1-22.2-22.1-22.2-42V197.1z M752.9,212.1
	v-1.7c-0.9-3.7-3.8-6-8.6-6.9c-0.7-0.2-1.5-0.3-2.4-0.3h-31.9c-6.6,0-11.2,2.3-13.7,6.9c-0.7,1.2-1,2.8-1,4.9v18.7L752.9,212.1z"/>
<path d="M815.4,289.5v-92c0-28.7,12.8-43,38.5-43h84V201h-62.5c-8.1,0-12.7,2.5-13.9,7.6v68.9c0,3,0.8,5.4,2.4,7.2
	c2.1,3.7,5.6,5.5,10.4,5.5H938v46.5h-74.3C831.5,336.7,815.4,320.9,815.4,289.5z"/>
<g>
	<path class="st0" d="M950.8,336.7V197.8c0-2.3,0.2-5.1,0.7-8.3c3.5-23.4,17.7-35.1,42.7-35.1h64.2c25,0,39.2,11.7,42.7,35.1
		c0.5,3.2,0.7,6,0.7,8.3v138.9h-46.2V213.8c0-1.1-0.1-2.1-0.3-2.8c-0.9-6.7-5.9-10-14.9-10h-28.5c-9,0-14,3.3-14.9,10v125.7H950.8z"
		/>
	<path class="st0" d="M1114,107.9c-0.5-8.3,2.1-15.4,7.8-21.2c5.7-5.8,12.7-8.7,21-8.7c7.9,0,14.6,2.8,20.3,8.5
		c5.7,5.7,8.5,12.4,8.5,20.3c0,8.1-2.8,14.9-8.5,20.5c-5.7,5.6-12.6,8.3-20.7,8.3c-7.9,0-14.5-2.7-19.8-8
		C1117.3,122.4,1114.4,115.8,1114,107.9z M1119.8,336.7V154.4h46.2v182.2H1119.8z"/>
	<path class="st0" d="M1184.1,336.7V197.8c0-2.3,0.2-5.1,0.7-8.3c3.5-23.4,17.7-35.1,42.7-35.1h64.2c25,0,39.2,11.7,42.7,35.1
		c0.5,3.2,0.7,6,0.7,8.3v138.9h-46.2V213.8c0-1.1-0.1-2.1-0.3-2.8c-0.9-6.7-5.9-10-14.9-10h-28.5c-9,0-14,3.3-14.9,10v125.7H1184.1z
		"/>
	<path class="st0" d="M1321.5,358.6h17.5c1.1,0,1.9-0.1,2.4-0.3c7.5-0.9,11.3-5.3,11.3-13.2V154.4h46.2v203
		c0,15.1-4.3,26.8-12.8,35.1c-8.6,8.3-20.4,12.5-35.4,12.5h-29.2V358.6z M1346.5,107.9c-0.2-8.3,2.4-15.4,8-21.2
		c5.5-5.8,12.5-8.7,20.8-8.7c8.1,0,14.9,2.8,20.5,8.3c5.6,5.6,8.3,12.4,8.3,20.5c0,7.9-2.8,14.6-8.5,20.3
		c-5.7,5.7-12.4,8.5-20.3,8.5c-7.6,0-14.3-2.7-19.9-8.2C1349.7,122.1,1346.8,115.6,1346.5,107.9z"/>
	<path class="st0" d="M1416.6,295.4v-37.1c0-13.7,4-24.2,11.9-31.8c7.9-7.5,18.7-11.3,32.3-11.3h61.6v-9.7c-0.2-3.9-3.5-6.4-9.8-7.3
		h-96.1v-43.7h105.9c1.4,0,4,0.2,7.9,0.7c21.6,2.5,34.1,13.9,37.6,34c0.5,2.8,0.7,5.4,0.7,8V294c0,3.2-0.2,6-0.7,8.3
		c-2.1,10.4-6.8,18.7-14.2,25c-7.4,6.3-16.3,9.4-26.7,9.4h-63.5c-26.8,0-42.2-11-46.2-33C1417.6,302.1,1417.3,299.3,1416.6,295.4z
		 M1465.1,287.5c1.5,2,3.9,3.3,7.1,4c0.7,0.2,1.5,0.4,2.4,0.4h36.1c7.9,0,11.8-3.5,11.8-10.4v-12.8c0-4.4-2-7.5-5.9-9.4
		c-0.9-0.9-3-1.4-6.2-1.4h-40.6c-3.9,0.7-6.3,3.7-6.9,9.1v14.4C1462.8,283.5,1463.6,285.5,1465.1,287.5z"/>
	<path class="st0" d="M1590.9,280.6L1678,201h-93.4v-46.5H1702c27.3,0,41,11.8,41,35.3c0,9.7-2.7,16.8-8,21.5l-90.9,79h92.3v46.5
		h-117c-10.7,0-19.7-2.8-27.1-8.3c-8.3-6.2-12.5-14.4-12.5-24.6C1579.8,295,1583.5,287.3,1590.9,280.6z"/>
</g>
<path class="st1" d="M105.1,88.6c-0.3,0.4-0.6,1.2-1,1.9c-0.8,1.8-1.9,4.4-4.7,4.4c0,0-0.1,0-0.1,0C73.8,94.5,51.2,83.6,50,83
	l-1.9-0.9c-0.2-0.1-0.4-0.2-0.5-0.2c-11.6,4.7-21.8,12.2-29.4,21.8l-0.6,0.8c-2.3,2.9-5.4,6.8-6,8.6c0.6,0.3,2,0.7,4.9,0.9
	c15.7,1.2,35.2-0.1,52.3-3.6c1.6-0.3,3.5-0.7,5.5-1c7-1.3,15.8-2.8,20.5-5.4c4.4-2.4,8.9-9,12.8-14.8c1.8-2.6,3.5-5.1,5.2-7.3
	l-1.9-0.4C108.9,83.8,107,86.2,105.1,88.6z"/>
<path class="st0" d="M257.7,178.4c10.2,0,18.4-8.3,18.4-18.4c0-10.2-8.3-18.4-18.4-18.4c-10.2,0-18.4,8.3-18.4,18.4
	C239.3,170.1,247.5,178.4,257.7,178.4z M257.7,169.2c5.1,0,9.2-4.1,9.2-9.2h3.8c0,7.2-5.8,13-13,13V169.2z"/>
<path d="M426.4,63.4c-0.2-1.5-0.3-2.5-0.3-2.9c-0.6-5.2-3.6-9.6-7.7-11.5c-0.7-0.4-1.5-0.6-2.3-0.8L261.3,11.5
	c-2.2-0.7-4.6-0.7-6.8,0L99.7,48.2c-0.8,0.2-1.6,0.4-2.4,0.8c-0.5,0.2-0.9,0.5-1.4,0.8c-5.5-3.9-11.1-7-16.8-9.2
	c-6.4-2.7-12.9-3.5-18.9-4.3c-6.1-0.5-11.9-0.2-17.3,0.2c-5.4,0.7-10.3,2-14.6,3.2c-4.2,1.1-7.9,3-10.9,4.5c-6,3-9.2,5.6-9.2,5.6
	c-1.1,0.8-1.4,2.5-0.7,3.8C7.8,53.8,8,54,8.2,54.3l0.1,0.1c0,0,3.2,2.8,8.7,6.3c2.7,1.9,6,3.5,9.6,5.8c3.6,2.2,7.6,4.4,11.9,6.6
	c4,2.4,8.4,4.3,12.9,6.4c0,0,15.8,7.7,35.7,10.6c-2.7,56.4,6.6,113,28.1,165.4c24.5,59.7,60.2,98,123.7,138.1c9.3,5.9,15,8.8,15.9,9
	c1,0.3,2,0.4,3,0.4c1,0,2-0.1,3-0.4c1-0.3,7-3.4,17-9.7c71.3-45.4,104.1-92.5,129.4-163.8C426,176.1,432.5,119.4,426.4,63.4z
	 M238.3,146.5c6.2,0.2,12.3,0.3,18.2,0.2h2.7c5.9,0,12-0.1,18.2-0.2c2.6,3.8,4.2,8.5,4.2,13.4c0,13.1-10.7,23.8-23.8,23.8
	c-13.1,0-23.8-10.7-23.8-23.8C234.1,155,235.6,150.4,238.3,146.5z M388.9,155.8c0,0-32.9,32.9-59,46.7c-26.2,13.8-38.6,4.5-52,1.3
	c-7.2-1.7-12.3-3.3-18.6-2.9h-2.7c-6.3-0.4-11.4,1.2-18.6,2.9c-13.4,3.2-25.8,12.5-52-1.3c-26.2-13.8-59-46.7-59-46.7
	c-6.8-21.3,12.8-21.1,12.8-21.1c28.8,6.3,56.4,9.7,82.1,11.1c-1.7,4.4-2.7,9.1-2.7,14.1c0,21.4,17.3,38.7,38.7,38.7
	s38.7-17.3,38.7-38.7c0-5-1-9.7-2.7-14.1c25.7-1.4,53.3-4.8,82.1-11.1C376,134.7,395.6,134.5,388.9,155.8z"/>
</svg>
