<?xml version="1.0" encoding="UTF-8"?>
<svg id="Layer_2" data-name="Layer 2" xmlns="http://www.w3.org/2000/svg" viewBox="0 0 356.65 78.74">
  <defs>
    <style>
      .cls-1 {
        fill: #fff;
      }

      .cls-2 {
        fill: #3291cd;
      }

      .cls-3 {
        fill: #010101;
      }
    </style>
  </defs>
  <g id="Layer_1-2" data-name="Layer 1">
    <g>
      <path class="cls-1" d="M95.31,64.6v-11.62h17.98c.87-.18.96-.55,1-.72l.03-.12.02-.03v-.75c0-.36-.05-.67-.7-.84h-8.17c-1.61,0-3.15-.4-4.59-1.2-3.55-2-5.34-4.64-5.34-7.84v-7.03c0-.74.11-1.57.31-2.45,1.1-4.64,4.52-7.09,9.9-7.09h20.12l.26,11.62h-18.25c-.06.02-.15.06-.27.11-.44.45-.61.68-.66.78v.73c0,.44.72.66,1.36.77h8.4c2.4,0,4.57.97,6.45,2.88,1.87,1.92,2.8,4.11,2.74,6.54v6.87c-.05,1.73-.55,3.37-1.47,4.92-.93,1.57-2.14,2.75-3.6,3.5-1.24.65-2.87.97-4.84.97h-20.67Z"/>
      <path class="cls-1" d="M138.59,64.6c-2.69,0-4.7-.39-6.16-1.2-3.39-1.85-5.11-5.07-5.11-9.56v-19.09c0-.69.08-1.42.24-2.15,1.1-5.03,4.59-7.68,10.09-7.68h12.99c5.74,0,9.16,2.89,9.89,8.37.05.38.08.94.08,1.7v8.19l-21.61,8.3c.01,1.51.55,1.51.87,1.51h20.67v11.62h-21.96ZM141.07,36.96c-1.31,0-1.75.52-1.96.91-.02.04-.09.16-.09.53v2.44l9.61-3.59c-.14-.09-.35-.17-.66-.23h-.06s-.06-.03-.06-.03c-.02,0-.08-.02-.18-.02h-6.6Z"/>
      <path class="cls-1" d="M172.83,64.6c-7.18,0-10.98-3.72-10.98-10.76v-19.02c0-8.18,4.88-9.9,8.97-9.9h18.37v11.62h-13.92c-1.49,0-1.79.45-1.87.7v14.12c0,.37.08.64.25.83l.07.08.05.09c.17.29.46.63,1.28.63h14.14v11.62h-16.36Z"/>
      <path class="cls-1" d="M212.53,64.6v-26.42c0-.19-.02-.27-.02-.27l-.03-.08v-.08c-.07-.39-.18-1.21-2.11-1.21h-5.89c-1.82,0-2.02.73-2.09,1.15v26.92h-11.55v-29.71c0-.53.05-1.16.15-1.87.79-5.3,4.18-8.11,9.82-8.11h13.28c5.63,0,9.03,2.8,9.82,8.1.1.73.15,1.34.15,1.87v29.71h-11.55Z"/>
      <path class="cls-1" d="M225.81,64.6V24.92h11.55v39.69h-11.55ZM231.47,23.04c-1.9,0-3.51-.65-4.8-1.95-1.27-1.27-1.98-2.87-2.08-4.74-.11-2.01.52-3.73,1.9-5.14,1.36-1.39,3.07-2.09,5.06-2.09s3.54.69,4.91,2.05c1.36,1.36,2.05,3.01,2.05,4.91s-.69,3.61-2.06,4.95c-1.36,1.33-3.04,2.01-4.97,2.01Z"/>
      <path class="cls-1" d="M260.76,64.6v-26.42c0-.19-.02-.26-.02-.26l-.02-.07-.02-.1c-.05-.39-.17-1.21-2.1-1.21h-5.89c-1.83,0-2.03.73-2.09,1.15v26.92h-11.55v-29.71c0-.52.05-1.15.15-1.86.79-5.31,4.18-8.11,9.82-8.11h13.28c5.64,0,9.03,2.8,9.82,8.1.1.74.16,1.35.16,1.87v29.71h-11.55Z"/>
      <path class="cls-1" d="M267.51,78.74v-11.62h4.62s.09,0,.12,0l.08-.04.17-.02c1.05-.13,1.47-.62,1.47-1.74V24.92h11.55v42.98c0,3.38-1,6.06-2.96,7.98-1.95,1.91-4.65,2.87-8.02,2.87h-7.03ZM279.63,23.04c-1.84,0-3.46-.66-4.82-1.97-1.36-1.31-2.08-2.9-2.14-4.75-.06-1.99.59-3.71,1.93-5.1,1.34-1.39,3.03-2.1,5.03-2.1s3.61.68,4.94,2.02c1.34,1.33,2.02,3,2.02,4.94s-.69,3.55-2.05,4.91-3.01,2.05-4.91,2.05Z"/>
      <path class="cls-1" d="M297.87,64.6c-7.57,0-9.91-4.16-10.53-7.64l-.03-.16.02-.16c.01-.08.04-.43-.14-1.41l-.02-.09v-7.77c0-3.1.94-5.55,2.78-7.3,1.83-1.73,4.31-2.61,7.37-2.61h11.74v-1.01c-.02-.28-.67-.44-1.1-.51h-20.79v-11.04h22.89c.33,0,.91.05,1.76.15,4.94.58,7.84,3.23,8.63,7.86.1.62.16,1.24.16,1.82v20.03c0,.75-.05,1.38-.16,1.92-.48,2.37-1.58,4.3-3.28,5.73-1.71,1.44-3.79,2.17-6.17,2.17h-13.14ZM298.72,52.17c0,.21.09.43.26.67.16.21.46.37.89.46h.06s.06.03.06.03c0,0,.05.02.17.02h7.47c1.33,0,1.44-.52,1.44-1.15v-2.66c0-.52-.18-.81-.65-1.04l-.15-.07-.06-.06c-.07-.02-.26-.06-.65-.06h-8.3c-.17.04-.43.19-.54.95v2.91Z"/>
      <path class="cls-1" d="M330.1,64.6c-2.41,0-4.5-.65-6.2-1.92-1.98-1.48-2.98-3.46-2.98-5.88,0-2.1.88-3.96,2.63-5.54l16.11-14.73h-17.73v-11.62h25.26c7.83,0,9.47,4.52,9.47,8.3,0,2.3-.67,4.05-1.99,5.19l-16.78,14.57h17.42v11.62h-25.19Z"/>
      <path class="cls-1" d="M18.22,16.91c-4.9-.09-9.26-2.2-9.44-2.29l-.33-.15c-.71-.33-1.45-.67-2.13-1.07-.86-.44-1.6-.85-2.24-1.24-.33-.22-.63-.39-.91-.55-.34-.19-.65-.37-.93-.57-.85-.55-1.44-1.01-1.63-1.17l-.06-.03-.12-.12c-.06-.06-.1-.13-.15-.19l-.1-.15c-.36-.69-.18-1.54.42-1.98h0s.66-.53,1.86-1.13c.64-.32,1.36-.67,2.21-.9l.14-.04c.79-.21,1.69-.44,2.7-.58.78-.07,1.45-.1,2.08-.1.44,0,.89.02,1.34.05l.15.02c1.13.15,2.41.32,3.68.86,1.24.49,2.49,1.2,3.7,2.1.68.43,1.38.99,2.05,1.54.43.35.86.69,1.29,1.01l.08.07,1.37,1.23-.7.74c-.91.97-1.81,2.03-2.75,3.24-.03.05-.06.13-.1.21-.16.36-.52,1.21-1.46,1.21h-.03Z"/>
      <path class="cls-1" d="M4.91,21.23c-.8,0-1.57-.03-2.29-.08-.52-.04-.92-.12-1.21-.23l-.89-.36.33-.9c.16-.45.63-1.06,1.26-1.86l.13-.16c1.49-1.9,3.52-3.41,5.87-4.36l.41-.17.84.4c.18.09,4.15,2,8.62,2.12.04-.07.08-.16.1-.22.08-.19.17-.39.3-.56.37-.48.73-.92,1.09-1.35l.38-.46,2.51.53-.98,1.26c-.31.4-.61.84-.92,1.31-.8,1.18-1.7,2.51-2.74,3.07-1.02.55-2.74.86-4.11,1.1-.38.07-.71.13-1,.19-2.45.49-5.19.77-7.71.77Z"/>
      <path class="cls-1" d="M47.59,74.88c-.28,0-.56-.04-.82-.11-.46-.13-1.99-1.02-3.22-1.8-12.32-7.78-18.88-15.1-23.39-26.14-4.4-10.76-6.15-22.7-5.06-34.53.12-1.24.21-2.02.23-2.21.16-1.3.92-2.42,2-2.93.19-.09.39-.16.64-.22L46.73.13c.23-.08.54-.13.86-.13s.63.05.94.15l28.69,6.79c.25.06.45.13.63.21,1.08.51,1.85,1.63,2,2.93l.06.55c1.15,10.53-.11,21.34-3.63,31.26-5.14,14.49-11.77,22.88-24.46,30.96-1.56.99-3,1.8-3.42,1.92-.26.07-.54.11-.82.11ZM51.53,35.88c.5.12.98.28,1.49.44,1.02.33,1.98.65,3.16.65,1.31,0,2.73-.41,4.32-1.25,4.22-2.23,9.52-7.33,10.55-8.34.17-.61.26-1.34-.07-1.8-.35-.48-1.09-.57-1.34-.59-4.51.99-9.23,1.65-14.03,1.98.12.56.18,1.13.18,1.71,0,3.1-1.72,5.8-4.26,7.19h0ZM24.13,27.39c1.03,1.01,6.33,6.11,10.55,8.34,1.59.84,3.01,1.25,4.32,1.25,1.18,0,2.14-.32,3.16-.65.5-.17.99-.32,1.49-.44h0c-2.54-1.4-4.26-4.1-4.26-7.19,0-.57.06-1.14.18-1.71-4.81-.33-9.52-1-14.03-1.98-.24.02-.99.11-1.34.59-.33.45-.24,1.19-.07,1.8ZM44.51,27.21c-.22.46-.34.97-.34,1.48,0,1.89,1.53,3.42,3.42,3.42s3.42-1.53,3.42-3.42c0-.52-.12-1.02-.34-1.48-.78.02-1.55.03-2.31.03h-1.54c-.76,0-1.53-.01-2.31-.03Z"/>
      <path class="cls-1" d="M47.59,74.88c-.28,0-.56-.04-.82-.11-.46-.13-1.99-1.02-3.22-1.8-12.32-7.78-18.88-15.1-23.39-26.14-4.4-10.76-6.15-22.7-5.06-34.53.12-1.24.21-2.02.23-2.21.16-1.3.92-2.42,2-2.93.19-.09.39-.16.64-.22L46.73.13c.23-.08.54-.13.86-.13s.63.05.94.15l28.69,6.79c.25.06.45.13.63.21,1.08.51,1.85,1.63,2,2.93l.06.55c1.15,10.53-.11,21.34-3.63,31.26-5.14,14.49-11.77,22.88-24.46,30.96-1.56.99-3,1.8-3.42,1.92-.26.07-.54.11-.82.11ZM51.53,35.88c.5.12.98.28,1.49.44,1.02.33,1.98.65,3.16.65,1.31,0,2.73-.41,4.32-1.25,4.22-2.23,9.52-7.33,10.55-8.34.17-.61.26-1.34-.07-1.8-.35-.48-1.09-.57-1.34-.59-4.51.99-9.23,1.65-14.03,1.98.12.56.18,1.13.18,1.71,0,3.1-1.72,5.8-4.26,7.19h0ZM24.13,27.39c1.03,1.01,6.33,6.11,10.55,8.34,1.59.84,3.01,1.25,4.32,1.25,1.18,0,2.14-.32,3.16-.65.5-.17.99-.32,1.49-.44h0c-2.54-1.4-4.26-4.1-4.26-7.19,0-.57.06-1.14.18-1.71-4.81-.33-9.52-1-14.03-1.98-.24.02-.99.11-1.34.59-.33.45-.24,1.19-.07,1.8ZM44.51,27.21c-.22.46-.34.97-.34,1.48,0,1.89,1.53,3.42,3.42,3.42s3.42-1.53,3.42-3.42c0-.52-.12-1.02-.34-1.48-.78.02-1.55.03-2.31.03h-1.54c-.76,0-1.53-.01-2.31-.03Z"/>
      <path class="cls-3" d="M96.31,63.6v-9.62h17.08c1.06-.19,1.68-.68,1.87-1.48.05-.09.07-.21.07-.35v-.78c0-.99-.53-1.6-1.59-1.84h-8.29c-1.44,0-2.81-.36-4.11-1.08-3.22-1.82-4.83-4.14-4.83-6.96v-7.03c0-.67.09-1.41.29-2.22,1-4.21,3.97-6.32,8.93-6.32h19.14l.22,9.62h-17.37c-.19.05-.43.14-.72.28-.72.71-1.08,1.2-1.08,1.48v.85c0,.94.76,1.53,2.28,1.77h8.48c2.14,0,4.05.86,5.74,2.58,1.69,1.72,2.51,3.66,2.46,5.81v6.89c-.05,1.53-.49,3-1.33,4.41-.84,1.41-1.9,2.45-3.2,3.12-1.1.57-2.56.86-4.38.86h-19.67Z"/>
      <path class="cls-3" d="M128.33,34.74c0-.62.07-1.27.22-1.94,1-4.59,4.04-6.89,9.12-6.89h12.99c5.26,0,8.23,2.5,8.9,7.5.05.33.07.86.07,1.57v7.5l-21.59,8.3v.63c-.01,1.72.61,2.57,1.86,2.57h19.67v9.62h-20.96c-2.49,0-4.38-.36-5.67-1.08-3.06-1.67-4.59-4.57-4.59-8.68v-19.09ZM149.93,37.83v-.36c-.19-.77-.78-1.24-1.77-1.44-.14-.05-.31-.07-.5-.07h-6.6c-1.37,0-2.32.48-2.84,1.44-.14.24-.21.57-.21,1.01v3.88l11.92-4.45Z"/>
      <path class="cls-3" d="M162.85,53.84v-19.02c0-5.93,2.66-8.9,7.97-8.9h17.37v9.62h-12.92c-1.68,0-2.63.52-2.87,1.57v14.25c0,.62.17,1.12.5,1.5.43.76,1.15,1.14,2.15,1.14h13.14v9.62h-15.36c-6.65,0-9.98-3.25-9.98-9.76Z"/>
      <path class="cls-2" d="M191.85,63.6v-28.71c0-.48.05-1.05.14-1.72.72-4.83,3.66-7.25,8.83-7.25h13.28c5.17,0,8.11,2.42,8.83,7.25.09.67.14,1.24.14,1.72v28.71h-9.55v-25.42c0-.24-.03-.43-.07-.57-.19-1.38-1.22-2.08-3.09-2.08h-5.89c-1.86,0-2.89.69-3.09,2.08v25.99h-9.55Z"/>
      <path class="cls-2" d="M225.59,16.3c-.1-1.72.44-3.18,1.61-4.38,1.17-1.2,2.62-1.79,4.34-1.79,1.63,0,3.03.59,4.2,1.76,1.17,1.17,1.76,2.57,1.76,4.2s-.59,3.09-1.76,4.24c-1.17,1.15-2.6,1.72-4.27,1.72s-2.99-.55-4.09-1.65c-1.1-1.1-1.7-2.46-1.79-4.09ZM226.81,63.6V25.92h9.55v37.69h-9.55Z"/>
      <path class="cls-2" d="M240.08,63.6v-28.71c0-.48.05-1.05.14-1.72.72-4.83,3.66-7.25,8.83-7.25h13.28c5.17,0,8.11,2.42,8.83,7.25.09.67.14,1.24.14,1.72v28.71h-9.55v-25.42c0-.24-.02-.43-.07-.57-.19-1.38-1.22-2.08-3.09-2.08h-5.88c-1.87,0-2.9.69-3.09,2.08v25.99h-9.55Z"/>
      <path class="cls-2" d="M268.51,68.12h3.62c.24,0,.4-.02.5-.07,1.56-.19,2.34-1.1,2.34-2.73V25.92h9.55v41.98c0,3.12-.89,5.54-2.66,7.26-1.77,1.73-4.21,2.59-7.32,2.59h-6.03v-9.62ZM273.68,16.3c-.05-1.72.5-3.18,1.65-4.38,1.15-1.2,2.58-1.79,4.31-1.79s3.09.57,4.24,1.72c1.15,1.15,1.72,2.56,1.72,4.23s-.59,3.03-1.76,4.2c-1.17,1.17-2.57,1.76-4.2,1.76s-2.95-.56-4.12-1.69c-1.17-1.12-1.78-2.48-1.83-4.06Z"/>
      <path class="cls-2" d="M288.18,55.06v-7.68c0-2.82.82-5.01,2.47-6.57,1.64-1.55,3.87-2.33,6.69-2.33h12.74v-2.01c-.05-.81-.72-1.32-2.02-1.51h-19.87v-9.04h21.89c.28,0,.83.05,1.64.14,4.46.53,7.05,2.87,7.77,7.03.1.57.14,1.13.14,1.65v20.03c0,.67-.05,1.24-.14,1.72-.43,2.15-1.41,3.88-2.94,5.17-1.53,1.29-3.37,1.94-5.53,1.94h-13.14c-5.55,0-8.73-2.27-9.55-6.82.05-.33,0-.91-.14-1.72ZM298.19,53.44c.31.41.8.69,1.47.83.14.05.31.07.5.07h7.47c1.63,0,2.44-.72,2.44-2.15v-2.66c0-.91-.41-1.55-1.22-1.94-.19-.19-.62-.29-1.29-.29h-8.4c-.81.15-1.29.77-1.44,1.89v2.97c0,.43.16.86.47,1.27Z"/>
      <path class="cls-2" d="M324.21,52l18.02-16.47h-19.31v-9.62h24.26c5.65,0,8.47,2.43,8.47,7.3,0,2-.55,3.48-1.65,4.44l-18.81,16.33h19.09v9.62h-24.19c-2.2,0-4.07-.57-5.6-1.72-1.72-1.29-2.58-2.98-2.58-5.08,0-1.81.77-3.41,2.3-4.8Z"/>
      <path class="cls-3" d="M9.22,13.73c-.84-.39-1.65-.75-2.4-1.19-.8-.41-1.55-.82-2.22-1.23-.67-.44-1.28-.74-1.79-1.09-1.02-.65-1.61-1.16-1.61-1.16l-.03-.02s-.06-.09-.1-.14c-.13-.24-.08-.56.13-.71,0,0,.6-.48,1.71-1.04.55-.27,1.23-.62,2.02-.83.8-.21,1.7-.45,2.71-.59.99-.09,2.07-.14,3.21-.05,1.13.15,2.34.3,3.52.8,1.19.47,2.36,1.13,3.49,1.98,1.15.74,2.23,1.74,3.35,2.55.2.18.41.36.61.55-.98,1.04-1.9,2.14-2.81,3.31-.26.34-.34,1.04-.78,1.03-4.74-.09-9.02-2.18-9.02-2.18Z"/>
      <path class="cls-2" d="M19.18,15.44c-.06.08-.12.22-.18.35-.14.33-.36.82-.88.82,0,0-.01,0-.02,0-4.74-.09-8.95-2.11-9.17-2.22l-.35-.16s-.07-.03-.1-.05c-2.16.88-4.06,2.27-5.46,4.06l-.12.15c-.43.54-1,1.27-1.12,1.6.12.05.37.12.91.16,2.92.22,6.55-.03,9.72-.67.3-.06.65-.12,1.02-.19,1.3-.23,2.93-.52,3.81-1,.83-.45,1.66-1.67,2.39-2.75.33-.49.64-.95.96-1.36l-.36-.07c-.35.42-.7.86-1.06,1.32Z"/>
      <path class="cls-2" d="M47.56,32.12c1.89,0,3.43-1.53,3.43-3.43s-1.53-3.43-3.43-3.43-3.43,1.53-3.43,3.43,1.53,3.43,3.43,3.43ZM47.56,30.4c.94,0,1.71-.77,1.71-1.71h.7c0,1.33-1.08,2.41-2.41,2.41v-.7Z"/>
      <path class="cls-3" d="M78.93,10.74c-.03-.28-.05-.46-.06-.54-.12-.97-.67-1.78-1.44-2.14-.14-.07-.29-.11-.44-.15L48.22,1.1c-.41-.13-.85-.13-1.26,0l-28.77,6.81c-.15.04-.3.08-.44.15-.77.36-1.32,1.18-1.44,2.14-.02.19-.11.96-.23,2.19-1.07,11.59.58,23.29,4.99,34.06,4.55,11.11,11.19,18.22,23,25.67,1.73,1.09,2.79,1.63,2.96,1.68.18.05.37.08.55.08s.37-.03.55-.08c.18-.05,1.31-.63,3.15-1.8,13.26-8.44,19.35-17.19,24.05-30.45,3.5-9.87,4.71-20.41,3.58-30.81ZM52.01,28.69c0,2.44-1.98,4.42-4.42,4.42s-4.42-1.98-4.42-4.42c0-.93.29-1.79.78-2.5,1.15.03,2.29.05,3.39.04h.51c1.1,0,2.24,0,3.39-.04.49.71.78,1.57.78,2.5ZM71.94,27.92s-6.11,6.12-10.97,8.69c-4.87,2.57-7.18.84-9.67.25-1.34-.32-2.28-.61-3.45-.54h-.51c-1.18-.07-2.12.22-3.45.54-2.49.59-4.8,2.32-9.67-.25-4.87-2.57-10.97-8.69-10.97-8.69-1.26-3.97,2.39-3.92,2.39-3.92,5.35,1.18,10.49,1.8,15.26,2.07-.32.81-.5,1.7-.5,2.62,0,3.98,3.22,7.2,7.2,7.2s7.2-3.22,7.2-7.2c0-.93-.18-1.81-.5-2.62,4.77-.27,9.91-.89,15.26-2.07,0,0,3.65-.05,2.39,3.92Z"/>
    </g>
  </g>
</svg>