<?xml version="1.0" encoding="utf-8"?>
<!-- Generator: Adobe Illustrator 22.1.0, SVG Export Plug-In . SVG Version: 6.00 Build 0)  -->
<svg version="1.1" id="Layer_1" xmlns="http://www.w3.org/2000/svg" xmlns:xlink="http://www.w3.org/1999/xlink" x="0px" y="0px"
	 viewBox="0 0 1757.5 412.8" style="enable-background:new 0 0 1757.5 412.8;" xml:space="preserve">
<style type="text/css">
	.st0{fill:#FFFFFF;}
	.st1{fill:#2D92CE;}
	.st2{fill:#2F92D0;}
</style>
<path class="st0" d="M495.4,336.4v-46.5H578c5.1-0.9,8.1-3.3,9.1-7.2c0.2-0.5,0.3-1,0.3-1.7v-3.8c0-4.8-2.5-7.7-7.7-8.9h-40.1
	c-7,0-13.6-1.7-19.9-5.2c-15.6-8.8-23.4-20-23.4-33.7v-34c0-3.2,0.5-6.8,1.4-10.8c4.8-20.4,19.2-30.5,43.2-30.5h92.6l1,46.5h-84
	c-0.9,0.2-2.1,0.7-3.5,1.4c-3.5,3.4-5.2,5.8-5.2,7.2v4.1c0,4.6,3.7,7.4,11,8.5h41c10.3,0,19.6,4.2,27.7,12.5
	c8.2,8.3,12.1,17.7,11.9,28.1v33.3c-0.2,7.4-2.4,14.5-6.4,21.3c-4.1,6.8-9.2,11.9-15.5,15.1c-5.3,2.8-12.4,4.2-21.2,4.2H495.4z"/>
<path class="st0" d="M650.3,196.9c0-3,0.3-6.1,1-9.4c4.9-22.2,19.5-33.3,44.1-33.3h62.8c25.5,0,39.8,12.1,43,36.3
	c0.2,1.6,0.3,4.1,0.3,7.6v36.3l-104.4,40.1l-0.1,3c0,8.3,3,12.4,9,12.4h95.1v46.5H699.9c-12,0-21.2-1.7-27.4-5.2
	c-14.8-8.1-22.2-22.1-22.2-42V196.9z M754.7,211.8v-1.7c-0.9-3.7-3.8-6-8.6-6.9c-0.7-0.2-1.5-0.3-2.4-0.3h-31.9
	c-6.6,0-11.2,2.3-13.7,6.9c-0.7,1.2-1,2.8-1,4.9v18.7L754.7,211.8z"/>
<path class="st0" d="M817.2,289.2v-92c0-28.7,12.8-43,38.5-43h84v46.5h-62.5c-8.1,0-12.7,2.5-13.9,7.6v68.9c0,3,0.8,5.4,2.4,7.2
	c2.1,3.7,5.6,5.5,10.4,5.5h63.5v46.5h-74.3C833.3,336.4,817.2,320.7,817.2,289.2z"/>
<g>
	<path class="st1" d="M952.6,336.4V197.6c0-2.3,0.2-5.1,0.7-8.3c3.5-23.4,17.7-35.1,42.7-35.1h64.2c25,0,39.2,11.7,42.7,35.1
		c0.5,3.2,0.7,6,0.7,8.3v138.9h-46.2V213.5c0-1.1-0.1-2.1-0.3-2.8c-0.9-6.7-5.9-10-14.9-10h-28.5c-9,0-14,3.3-14.9,10v125.7H952.6z"
		/>
	<path class="st1" d="M1115.8,107.7c-0.5-8.3,2.1-15.4,7.8-21.2c5.7-5.8,12.7-8.7,21-8.7c7.9,0,14.6,2.8,20.3,8.5
		c5.7,5.7,8.5,12.4,8.5,20.3c0,8.1-2.8,14.9-8.5,20.5c-5.7,5.6-12.6,8.3-20.7,8.3c-7.9,0-14.5-2.7-19.8-8
		C1119.1,122.1,1116.2,115.6,1115.8,107.7z M1121.7,336.4V154.2h46.2v182.2H1121.7z"/>
	<path class="st1" d="M1185.9,336.4V197.6c0-2.3,0.2-5.1,0.7-8.3c3.5-23.4,17.7-35.1,42.7-35.1h64.2c25,0,39.2,11.7,42.7,35.1
		c0.5,3.2,0.7,6,0.7,8.3v138.9h-46.2V213.5c0-1.1-0.1-2.1-0.3-2.8c-0.9-6.7-5.9-10-14.9-10H1247c-9,0-14,3.3-14.9,10v125.7H1185.9z"
		/>
	<path class="st1" d="M1323.3,358.3h17.5c1.1,0,1.9-0.1,2.4-0.3c7.5-0.9,11.3-5.3,11.3-13.2V154.2h46.2v203
		c0,15.1-4.3,26.8-12.8,35.1c-8.6,8.3-20.4,12.5-35.4,12.5h-29.2V358.3z M1348.3,107.7c-0.2-8.3,2.4-15.4,8-21.2
		c5.5-5.8,12.5-8.7,20.8-8.7c8.1,0,14.9,2.8,20.5,8.3c5.6,5.6,8.3,12.4,8.3,20.5c0,7.9-2.8,14.6-8.5,20.3
		c-5.7,5.7-12.4,8.5-20.3,8.5c-7.6,0-14.3-2.7-19.9-8.2C1351.5,121.9,1348.6,115.3,1348.3,107.7z"/>
	<path class="st1" d="M1418.5,295.1V258c0-13.7,4-24.2,11.9-31.8c7.9-7.5,18.7-11.3,32.3-11.3h61.6v-9.7c-0.2-3.9-3.5-6.4-9.8-7.3
		h-96.1v-43.7h105.9c1.4,0,4,0.2,7.9,0.7c21.6,2.5,34.1,13.9,37.6,34c0.5,2.8,0.7,5.4,0.7,8v96.9c0,3.2-0.2,6-0.7,8.3
		c-2.1,10.4-6.8,18.7-14.2,25c-7.4,6.3-16.3,9.4-26.7,9.4h-63.5c-26.8,0-42.2-11-46.2-33C1419.4,301.8,1419.2,299.1,1418.5,295.1z
		 M1466.9,287.3c1.5,2,3.9,3.3,7.1,4c0.7,0.2,1.5,0.4,2.4,0.4h36.1c7.9,0,11.8-3.5,11.8-10.4v-12.8c0-4.4-2-7.5-5.9-9.4
		c-0.9-0.9-3-1.4-6.2-1.4h-40.6c-3.9,0.7-6.3,3.7-6.9,9.1v14.4C1464.6,283.2,1465.4,285.3,1466.9,287.3z"/>
	<path class="st1" d="M1592.7,280.3l87.1-79.6h-93.4v-46.5h117.3c27.3,0,41,11.8,41,35.3c0,9.7-2.7,16.8-8,21.5l-90.9,79h92.3v46.5
		h-117c-10.7,0-19.7-2.8-27.1-8.3c-8.3-6.2-12.5-14.4-12.5-24.6C1581.6,294.8,1585.3,287,1592.7,280.3z"/>
</g>
<path class="st2" d="M106.9,88.4c-0.3,0.4-0.6,1.2-1,1.9c-0.8,1.8-1.9,4.4-4.7,4.4c0,0-0.1,0-0.1,0C75.6,94.3,53,83.4,51.8,82.8
	l-1.9-0.9c-0.2-0.1-0.4-0.2-0.5-0.2C37.7,86.4,27.5,93.9,20,103.5l-0.6,0.8c-2.3,2.9-5.4,6.8-6,8.6c0.6,0.3,2,0.7,4.9,0.9
	c15.7,1.2,35.2-0.1,52.3-3.6c1.6-0.3,3.5-0.7,5.5-1c7-1.3,15.8-2.8,20.5-5.4c4.4-2.4,8.9-9,12.8-14.8c1.8-2.6,3.5-5.1,5.2-7.3
	l-1.9-0.4C110.7,83.6,108.8,85.9,106.9,88.4z"/>
<path class="st1" d="M259.5,178.2c10.2,0,18.4-8.3,18.4-18.4c0-10.2-8.3-18.4-18.4-18.4c-10.2,0-18.4,8.3-18.4,18.4
	C241.1,169.9,249.3,178.2,259.5,178.2z M259.5,168.9c5.1,0,9.2-4.1,9.2-9.2h3.8c0,7.2-5.8,13-13,13V168.9z"/>
<path class="st0" d="M428.2,63.2c-0.2-1.5-0.3-2.5-0.3-2.9c-0.6-5.2-3.6-9.6-7.7-11.5c-0.7-0.4-1.5-0.6-2.3-0.8L263.1,11.3
	c-2.2-0.7-4.6-0.7-6.8,0L101.5,47.9c-0.8,0.2-1.6,0.4-2.4,0.8c-0.5,0.2-0.9,0.5-1.4,0.8c-5.5-3.9-11.1-7-16.8-9.2
	C74.6,37.6,68.1,36.8,62,36c-6.1-0.5-11.9-0.2-17.3,0.2c-5.4,0.7-10.3,2-14.6,3.2c-4.2,1.1-7.9,3-10.9,4.5c-6,3-9.2,5.6-9.2,5.6
	C9,50.3,8.7,52,9.4,53.3c0.2,0.2,0.3,0.5,0.5,0.7l0.1,0.1c0,0,3.2,2.8,8.7,6.3c2.7,1.9,6,3.5,9.6,5.8c3.6,2.2,7.6,4.4,11.9,6.6
	c4,2.4,8.4,4.3,12.9,6.4c0,0,15.8,7.7,35.7,10.6c-2.7,56.4,6.6,113,28.1,165.4c24.5,59.7,60.2,98,123.7,138.1c9.3,5.9,15,8.8,15.9,9
	c1,0.3,2,0.4,3,0.4c1,0,2-0.1,3-0.4c1-0.3,7-3.4,17-9.7c71.3-45.4,104.1-92.5,129.4-163.8C427.9,175.9,434.4,119.2,428.2,63.2z
	 M240.1,146.3c6.2,0.2,12.3,0.3,18.2,0.2h2.7c5.9,0,12-0.1,18.2-0.2c2.6,3.8,4.2,8.5,4.2,13.4c0,13.1-10.7,23.8-23.8,23.8
	c-13.1,0-23.8-10.7-23.8-23.8C235.9,154.7,237.4,150.1,240.1,146.3z M390.7,155.6c0,0-32.9,32.9-59,46.7c-26.2,13.8-38.6,4.5-52,1.3
	c-7.2-1.7-12.3-3.3-18.6-2.9h-2.7c-6.3-0.4-11.4,1.2-18.6,2.9c-13.4,3.2-25.8,12.5-52-1.3c-26.2-13.8-59-46.7-59-46.7
	c-6.8-21.3,12.8-21.1,12.8-21.1c28.8,6.3,56.4,9.7,82.1,11.1c-1.7,4.4-2.7,9.1-2.7,14.1c0,21.4,17.3,38.7,38.7,38.7
	s38.7-17.3,38.7-38.7c0-5-1-9.7-2.7-14.1c25.7-1.4,53.3-4.8,82.1-11.1C377.8,134.5,397.4,134.2,390.7,155.6z"/>
</svg>
